<svg id="visual" viewBox="0 0 900 150" width="900" height="150" xmlns="http://www.w3.org/2000/svg" xmlns:xlink="http://www.w3.org/1999/xlink" version="1.1"><rect x="0" y="0" width="900" height="150" fill="#161616"></rect><path d="M0 63L82 68L164 66L245 43L327 61L409 30L491 58L573 30L655 37L736 28L818 26L900 41L900 151L818 151L736 151L655 151L573 151L491 151L409 151L327 151L245 151L164 151L82 151L0 151Z" fill="#715df2"></path><path d="M0 108L82 58L164 94L245 66L327 78L409 63L491 85L573 97L655 58L736 90L818 76L900 65L900 151L818 151L736 151L655 151L573 151L491 151L409 151L327 151L245 151L164 151L82 151L0 151Z" fill="#6543bb"></path><path d="M0 141L82 125L164 112L245 116L327 93L409 123L491 136L573 122L655 109L736 126L818 128L900 116L900 151L818 151L736 151L655 151L573 151L491 151L409 151L327 151L245 151L164 151L82 151L0 151Z" fill="#532b88"></path></svg>