<svg id="visual" viewBox="0 0 900 450" width="900" height="450" xmlns="http://www.w3.org/2000/svg" xmlns:xlink="http://www.w3.org/1999/xlink" version="1.1"><rect width="900" height="450" fill="#161616"></rect><g><g transform="translate(536 305)"><path d="M67.1 -69C84.7 -49.5 95 -24.8 95.4 0.3C95.7 25.4 85.9 50.8 68.4 68.7C50.8 86.6 25.4 96.9 2.4 94.5C-20.7 92.2 -41.4 77.2 -59.7 59.3C-78 41.4 -93.9 20.7 -96.7 -2.8C-99.4 -26.3 -89.1 -52.6 -70.9 -72C-52.6 -91.5 -26.3 -104.1 -0.8 -103.3C24.8 -102.6 49.5 -88.4 67.1 -69Z" fill="none" stroke="#715DF2" stroke-width="20"></path></g><g transform="translate(214 151)"><path d="M42.5 -41.4C51.3 -33.7 52.1 -16.9 52.1 0C52.1 16.9 51.4 33.8 42.6 43.5C33.8 53.3 16.9 55.8 1.8 54C-13.4 52.2 -26.8 46.2 -35.4 36.5C-44 26.8 -47.9 13.4 -47.7 0.2C-47.5 -13.1 -43.4 -26.2 -34.8 -33.8C-26.2 -41.5 -13.1 -43.7 1.9 -45.6C16.9 -47.5 33.7 -49 42.5 -41.4Z" fill="none" stroke="#715DF2" stroke-width="20"></path></g><g transform="translate(758 136)"><path d="M39.5 -39.4C49.6 -29.4 55.1 -14.7 56.6 1.5C58.1 17.7 55.6 35.4 45.5 46.8C35.4 58.2 17.7 63.3 0.8 62.5C-16 61.6 -32.1 54.9 -43.7 43.5C-55.3 32.1 -62.4 16 -63.2 -0.7C-63.9 -17.5 -58.2 -35.1 -46.6 -45C-35.1 -55 -17.5 -57.4 -1.4 -56C14.7 -54.6 29.4 -49.4 39.5 -39.4Z" stroke="#715DF2" fill="none" stroke-width="20"></path></g></g></svg>