<svg id="visual" viewBox="0 0 900 450" width="900" height="450" xmlns="http://www.w3.org/2000/svg" xmlns:xlink="http://www.w3.org/1999/xlink" version="1.1"><rect x="0" y="0" width="900" height="450" fill="#7B2CBF"></rect><g transform="translate(435.61691586152966 185.75937251353375)"><path d="M44 -74.1C58 -68.1 71 -58.3 92.7 -45.3C114.3 -32.3 144.7 -16.2 160.5 9.2C176.4 34.5 177.8 69 167.3 101.3C156.8 133.7 134.4 163.8 104.5 184.1C74.7 204.3 37.3 214.7 6.4 203.5C-24.5 192.4 -49 159.9 -76.7 138.4C-104.4 116.9 -135.4 106.4 -143.1 85.2C-150.9 64 -135.4 32 -132.8 1.5C-130.2 -29 -140.5 -58 -135 -83.3C-129.6 -108.5 -108.6 -130 -83.4 -129.6C-58.3 -129.2 -29.2 -106.8 -7.1 -94.5C15 -82.2 30 -80.1 44 -74.1" fill="none" stroke="#532B88" stroke-width="6"></path></g></svg>