<svg id="visual" viewBox="0 0 900 450" width="900" height="450" xmlns="http://www.w3.org/2000/svg" xmlns:xlink="http://www.w3.org/1999/xlink" version="1.1"><rect x="0" y="0" width="900" height="450" fill="#7B2CBF"></rect><g transform="translate(434.33671710397107 202.58429372473978)"><path d="M86.2 -138.7C110.5 -135.4 128 -109.7 149.2 -82.8C170.3 -56 195.2 -28 193.3 -1.1C191.4 25.8 162.8 51.7 135.2 67.3C107.5 82.8 80.7 88.2 58.4 105.6C36 123 18 152.5 -9.7 169.4C-37.5 186.3 -75 190.6 -93.2 170.7C-111.4 150.9 -110.2 107 -123.3 74.5C-136.4 42 -163.7 21 -162 1C-160.2 -19 -129.5 -38 -104.7 -50.2C-79.9 -62.4 -61 -67.7 -44.6 -75.6C-28.1 -83.4 -14.1 -93.7 8.5 -108.4C31 -123 62 -142.1 86.2 -138.7" fill="none" stroke="#532B88" stroke-width="6"></path></g></svg>