<svg id="visual" viewBox="0 0 900 450" width="900" height="450" xmlns="http://www.w3.org/2000/svg" xmlns:xlink="http://www.w3.org/1999/xlink" version="1.1"><rect x="0" y="0" width="900" height="450" fill="#532B88"></rect><path d="M0 295L45 295L45 230L90 230L90 292L135 292L135 213L180 213L180 173L225 173L225 206L270 206L270 307L315 307L315 181L360 181L360 153L405 153L405 181L450 181L450 236L495 236L495 181L540 181L540 265L585 265L585 245L630 245L630 173L675 173L675 215L720 215L720 244L765 244L765 257L810 257L810 200L855 200L855 245L900 245L900 299L900 451L900 451L855 451L855 451L810 451L810 451L765 451L765 451L720 451L720 451L675 451L675 451L630 451L630 451L585 451L585 451L540 451L540 451L495 451L495 451L450 451L450 451L405 451L405 451L360 451L360 451L315 451L315 451L270 451L270 451L225 451L225 451L180 451L180 451L135 451L135 451L90 451L90 451L45 451L45 451L0 451Z" fill="#161616" stroke-linecap="square" stroke-linejoin="miter"></path></svg>