<svg id="visual" viewBox="0 0 900 150" width="900" height="150" xmlns="http://www.w3.org/2000/svg" xmlns:xlink="http://www.w3.org/1999/xlink" version="1.1"><rect x="0" y="0" width="900" height="150" fill="#161616"></rect><path d="M0 85L82 80L164 82L245 105L327 87L409 118L491 90L573 118L655 111L736 120L818 122L900 107L900 0L818 0L736 0L655 0L573 0L491 0L409 0L327 0L245 0L164 0L82 0L0 0Z" fill="#715df2"></path><path d="M0 40L82 90L164 54L245 82L327 70L409 85L491 63L573 51L655 90L736 58L818 72L900 83L900 0L818 0L736 0L655 0L573 0L491 0L409 0L327 0L245 0L164 0L82 0L0 0Z" fill="#6543bb"></path><path d="M0 7L82 23L164 36L245 32L327 55L409 25L491 12L573 26L655 39L736 22L818 20L900 32L900 0L818 0L736 0L655 0L573 0L491 0L409 0L327 0L245 0L164 0L82 0L0 0Z" fill="#532b88"></path></svg>